<?xml version="1.0" encoding="utf-8" standalone="no"?>
<!DOCTYPE svg PUBLIC "-//W3C//DTD SVG 1.1//EN"
  "http://www.w3.org/Graphics/SVG/1.1/DTD/svg11.dtd">
<!-- Created with matplotlib (https://matplotlib.org/) -->
<svg height="432pt" version="1.1" viewBox="0 0 720 432" width="720pt" xmlns="http://www.w3.org/2000/svg" xmlns:xlink="http://www.w3.org/1999/xlink">
 <metadata>
  <rdf:RDF xmlns:cc="http://creativecommons.org/ns#" xmlns:dc="http://purl.org/dc/elements/1.1/" xmlns:rdf="http://www.w3.org/1999/02/22-rdf-syntax-ns#">
   <cc:Work>
    <dc:type rdf:resource="http://purl.org/dc/dcmitype/StillImage"/>
    <dc:date>2021-03-17T09:51:39.218976</dc:date>
    <dc:format>image/svg+xml</dc:format>
    <dc:creator>
     <cc:Agent>
      <dc:title>Matplotlib v3.3.2, https://matplotlib.org/</dc:title>
     </cc:Agent>
    </dc:creator>
   </cc:Work>
  </rdf:RDF>
 </metadata>
 <defs>
  <style type="text/css">*{stroke-linecap:butt;stroke-linejoin:round;}</style>
 </defs>
 <g id="figure_1">
  <g id="patch_1">
   <path d="M 0 432 
L 720 432 
L 720 0 
L 0 0 
z
" style="fill:#ffffff;"/>
  </g>
  <g id="axes_1">
   <g id="patch_2">
    <path d="M 72 388.8 
L 684 388.8 
L 684 21.6 
L 72 21.6 
z
" style="fill:#ffffff;"/>
   </g>
   <g id="patch_3">
    <path clip-path="url(#p1a70cdd1c9)" d="M 72 388.8 
L 72 21.6 
L 276 21.6 
L 276 388.8 
z
" style="fill:#faf0e6;stroke:#faf0e6;stroke-linejoin:miter;"/>
   </g>
   <g id="patch_4">
    <path clip-path="url(#p1a70cdd1c9)" d="M 480 388.8 
L 480 21.6 
L 684 21.6 
L 684 388.8 
z
" style="fill:#faf0e6;stroke:#faf0e6;stroke-linejoin:miter;"/>
   </g>
   <g id="matplotlib.axis_1">
    <g id="xtick_1">
     <g id="line2d_1">
      <path clip-path="url(#p1a70cdd1c9)" d="M 182.5 388.8 
L 182.5 21.6 
" style="fill:none;stroke:#b0b0b0;stroke-linecap:square;stroke-width:0.8;"/>
     </g>
     <g id="line2d_2">
      <defs>
       <path d="M 0 0 
L 0 5.5 
" id="m336e7026df" style="stroke:#000000;stroke-width:1.8;"/>
      </defs>
      <g>
       <use style="stroke:#000000;stroke-width:1.8;" x="182.5" xlink:href="#m336e7026df" y="388.8"/>
      </g>
     </g>
     <g id="text_1">
      <!-- Boreal -->
      <g transform="translate(154.9168 410.9301)scale(0.1728 -0.1728)">
       <defs>
        <path d="M 19.671875 34.8125 
L 19.671875 8.109375 
L 35.5 8.109375 
Q 43.453125 8.109375 47.28125 11.40625 
Q 51.125 14.703125 51.125 21.484375 
Q 51.125 28.328125 47.28125 31.5625 
Q 43.453125 34.8125 35.5 34.8125 
z
M 19.671875 64.796875 
L 19.671875 42.828125 
L 34.28125 42.828125 
Q 41.5 42.828125 45.03125 45.53125 
Q 48.578125 48.25 48.578125 53.8125 
Q 48.578125 59.328125 45.03125 62.0625 
Q 41.5 64.796875 34.28125 64.796875 
z
M 9.8125 72.90625 
L 35.015625 72.90625 
Q 46.296875 72.90625 52.390625 68.21875 
Q 58.5 63.53125 58.5 54.890625 
Q 58.5 48.1875 55.375 44.234375 
Q 52.25 40.28125 46.1875 39.3125 
Q 53.46875 37.75 57.5 32.78125 
Q 61.53125 27.828125 61.53125 20.40625 
Q 61.53125 10.640625 54.890625 5.3125 
Q 48.25 0 35.984375 0 
L 9.8125 0 
z
" id="DejaVuSans-66"/>
        <path d="M 30.609375 48.390625 
Q 23.390625 48.390625 19.1875 42.75 
Q 14.984375 37.109375 14.984375 27.296875 
Q 14.984375 17.484375 19.15625 11.84375 
Q 23.34375 6.203125 30.609375 6.203125 
Q 37.796875 6.203125 41.984375 11.859375 
Q 46.1875 17.53125 46.1875 27.296875 
Q 46.1875 37.015625 41.984375 42.703125 
Q 37.796875 48.390625 30.609375 48.390625 
z
M 30.609375 56 
Q 42.328125 56 49.015625 48.375 
Q 55.71875 40.765625 55.71875 27.296875 
Q 55.71875 13.875 49.015625 6.21875 
Q 42.328125 -1.421875 30.609375 -1.421875 
Q 18.84375 -1.421875 12.171875 6.21875 
Q 5.515625 13.875 5.515625 27.296875 
Q 5.515625 40.765625 12.171875 48.375 
Q 18.84375 56 30.609375 56 
z
" id="DejaVuSans-111"/>
        <path d="M 41.109375 46.296875 
Q 39.59375 47.171875 37.8125 47.578125 
Q 36.03125 48 33.890625 48 
Q 26.265625 48 22.1875 43.046875 
Q 18.109375 38.09375 18.109375 28.8125 
L 18.109375 0 
L 9.078125 0 
L 9.078125 54.6875 
L 18.109375 54.6875 
L 18.109375 46.1875 
Q 20.953125 51.171875 25.484375 53.578125 
Q 30.03125 56 36.53125 56 
Q 37.453125 56 38.578125 55.875 
Q 39.703125 55.765625 41.0625 55.515625 
z
" id="DejaVuSans-114"/>
        <path d="M 56.203125 29.59375 
L 56.203125 25.203125 
L 14.890625 25.203125 
Q 15.484375 15.921875 20.484375 11.0625 
Q 25.484375 6.203125 34.421875 6.203125 
Q 39.59375 6.203125 44.453125 7.46875 
Q 49.3125 8.734375 54.109375 11.28125 
L 54.109375 2.78125 
Q 49.265625 0.734375 44.1875 -0.34375 
Q 39.109375 -1.421875 33.890625 -1.421875 
Q 20.796875 -1.421875 13.15625 6.1875 
Q 5.515625 13.8125 5.515625 26.8125 
Q 5.515625 40.234375 12.765625 48.109375 
Q 20.015625 56 32.328125 56 
Q 43.359375 56 49.78125 48.890625 
Q 56.203125 41.796875 56.203125 29.59375 
z
M 47.21875 32.234375 
Q 47.125 39.59375 43.09375 43.984375 
Q 39.0625 48.390625 32.421875 48.390625 
Q 24.90625 48.390625 20.390625 44.140625 
Q 15.875 39.890625 15.1875 32.171875 
z
" id="DejaVuSans-101"/>
        <path d="M 34.28125 27.484375 
Q 23.390625 27.484375 19.1875 25 
Q 14.984375 22.515625 14.984375 16.5 
Q 14.984375 11.71875 18.140625 8.90625 
Q 21.296875 6.109375 26.703125 6.109375 
Q 34.1875 6.109375 38.703125 11.40625 
Q 43.21875 16.703125 43.21875 25.484375 
L 43.21875 27.484375 
z
M 52.203125 31.203125 
L 52.203125 0 
L 43.21875 0 
L 43.21875 8.296875 
Q 40.140625 3.328125 35.546875 0.953125 
Q 30.953125 -1.421875 24.3125 -1.421875 
Q 15.921875 -1.421875 10.953125 3.296875 
Q 6 8.015625 6 15.921875 
Q 6 25.140625 12.171875 29.828125 
Q 18.359375 34.515625 30.609375 34.515625 
L 43.21875 34.515625 
L 43.21875 35.40625 
Q 43.21875 41.609375 39.140625 45 
Q 35.0625 48.390625 27.6875 48.390625 
Q 23 48.390625 18.546875 47.265625 
Q 14.109375 46.140625 10.015625 43.890625 
L 10.015625 52.203125 
Q 14.9375 54.109375 19.578125 55.046875 
Q 24.21875 56 28.609375 56 
Q 40.484375 56 46.34375 49.84375 
Q 52.203125 43.703125 52.203125 31.203125 
z
" id="DejaVuSans-97"/>
        <path d="M 9.421875 75.984375 
L 18.40625 75.984375 
L 18.40625 0 
L 9.421875 0 
z
" id="DejaVuSans-108"/>
       </defs>
       <use xlink:href="#DejaVuSans-66"/>
       <use x="68.603516" xlink:href="#DejaVuSans-111"/>
       <use x="129.785156" xlink:href="#DejaVuSans-114"/>
       <use x="168.648438" xlink:href="#DejaVuSans-101"/>
       <use x="230.171875" xlink:href="#DejaVuSans-97"/>
       <use x="291.451172" xlink:href="#DejaVuSans-108"/>
      </g>
     </g>
    </g>
    <g id="xtick_2">
     <g id="line2d_3">
      <path clip-path="url(#p1a70cdd1c9)" d="M 386.5 388.8 
L 386.5 21.6 
" style="fill:none;stroke:#b0b0b0;stroke-linecap:square;stroke-width:0.8;"/>
     </g>
     <g id="line2d_4">
      <g>
       <use style="stroke:#000000;stroke-width:1.8;" x="386.5" xlink:href="#m336e7026df" y="388.8"/>
      </g>
     </g>
     <g id="text_2">
      <!-- Cold -->
      <g transform="translate(367.2949 410.9301)scale(0.1728 -0.1728)">
       <defs>
        <path d="M 64.40625 67.28125 
L 64.40625 56.890625 
Q 59.421875 61.53125 53.78125 63.8125 
Q 48.140625 66.109375 41.796875 66.109375 
Q 29.296875 66.109375 22.65625 58.46875 
Q 16.015625 50.828125 16.015625 36.375 
Q 16.015625 21.96875 22.65625 14.328125 
Q 29.296875 6.6875 41.796875 6.6875 
Q 48.140625 6.6875 53.78125 8.984375 
Q 59.421875 11.28125 64.40625 15.921875 
L 64.40625 5.609375 
Q 59.234375 2.09375 53.4375 0.328125 
Q 47.65625 -1.421875 41.21875 -1.421875 
Q 24.65625 -1.421875 15.125 8.703125 
Q 5.609375 18.84375 5.609375 36.375 
Q 5.609375 53.953125 15.125 64.078125 
Q 24.65625 74.21875 41.21875 74.21875 
Q 47.75 74.21875 53.53125 72.484375 
Q 59.328125 70.75 64.40625 67.28125 
z
" id="DejaVuSans-67"/>
        <path d="M 45.40625 46.390625 
L 45.40625 75.984375 
L 54.390625 75.984375 
L 54.390625 0 
L 45.40625 0 
L 45.40625 8.203125 
Q 42.578125 3.328125 38.25 0.953125 
Q 33.9375 -1.421875 27.875 -1.421875 
Q 17.96875 -1.421875 11.734375 6.484375 
Q 5.515625 14.40625 5.515625 27.296875 
Q 5.515625 40.1875 11.734375 48.09375 
Q 17.96875 56 27.875 56 
Q 33.9375 56 38.25 53.625 
Q 42.578125 51.265625 45.40625 46.390625 
z
M 14.796875 27.296875 
Q 14.796875 17.390625 18.875 11.75 
Q 22.953125 6.109375 30.078125 6.109375 
Q 37.203125 6.109375 41.296875 11.75 
Q 45.40625 17.390625 45.40625 27.296875 
Q 45.40625 37.203125 41.296875 42.84375 
Q 37.203125 48.484375 30.078125 48.484375 
Q 22.953125 48.484375 18.875 42.84375 
Q 14.796875 37.203125 14.796875 27.296875 
z
" id="DejaVuSans-100"/>
       </defs>
       <use xlink:href="#DejaVuSans-67"/>
       <use x="69.824219" xlink:href="#DejaVuSans-111"/>
       <use x="131.005859" xlink:href="#DejaVuSans-108"/>
       <use x="158.789062" xlink:href="#DejaVuSans-100"/>
      </g>
     </g>
    </g>
    <g id="xtick_3">
     <g id="line2d_5">
      <path clip-path="url(#p1a70cdd1c9)" d="M 590.5 388.8 
L 590.5 21.6 
" style="fill:none;stroke:#b0b0b0;stroke-linecap:square;stroke-width:0.8;"/>
     </g>
     <g id="line2d_6">
      <g>
       <use style="stroke:#000000;stroke-width:1.8;" x="590.5" xlink:href="#m336e7026df" y="388.8"/>
      </g>
     </g>
     <g id="text_3">
      <!-- MM -->
      <g transform="translate(575.5906 410.9301)scale(0.1728 -0.1728)">
       <defs>
        <path d="M 9.8125 72.90625 
L 24.515625 72.90625 
L 43.109375 23.296875 
L 61.8125 72.90625 
L 76.515625 72.90625 
L 76.515625 0 
L 66.890625 0 
L 66.890625 64.015625 
L 48.09375 14.015625 
L 38.1875 14.015625 
L 19.390625 64.015625 
L 19.390625 0 
L 9.8125 0 
z
" id="DejaVuSans-77"/>
       </defs>
       <use xlink:href="#DejaVuSans-77"/>
       <use x="86.279297" xlink:href="#DejaVuSans-77"/>
      </g>
     </g>
    </g>
   </g>
   <g id="matplotlib.axis_2">
    <g id="ytick_1">
     <g id="line2d_7">
      <path clip-path="url(#p1a70cdd1c9)" d="M 72 388.8 
L 684 388.8 
" style="fill:none;stroke:#b0b0b0;stroke-linecap:square;stroke-width:0.8;"/>
     </g>
     <g id="line2d_8">
      <defs>
       <path d="M 0 0 
L -5.5 0 
" id="mc98d514988" style="stroke:#000000;stroke-width:1.8;"/>
      </defs>
      <g>
       <use style="stroke:#000000;stroke-width:1.8;" x="72" xlink:href="#mc98d514988" y="388.8"/>
      </g>
     </g>
     <g id="text_4">
      <!-- 0 -->
      <g transform="translate(53.838 394.270875)scale(0.144 -0.144)">
       <defs>
        <path d="M 31.78125 66.40625 
Q 24.171875 66.40625 20.328125 58.90625 
Q 16.5 51.421875 16.5 36.375 
Q 16.5 21.390625 20.328125 13.890625 
Q 24.171875 6.390625 31.78125 6.390625 
Q 39.453125 6.390625 43.28125 13.890625 
Q 47.125 21.390625 47.125 36.375 
Q 47.125 51.421875 43.28125 58.90625 
Q 39.453125 66.40625 31.78125 66.40625 
z
M 31.78125 74.21875 
Q 44.046875 74.21875 50.515625 64.515625 
Q 56.984375 54.828125 56.984375 36.375 
Q 56.984375 17.96875 50.515625 8.265625 
Q 44.046875 -1.421875 31.78125 -1.421875 
Q 19.53125 -1.421875 13.0625 8.265625 
Q 6.59375 17.96875 6.59375 36.375 
Q 6.59375 54.828125 13.0625 64.515625 
Q 19.53125 74.21875 31.78125 74.21875 
z
" id="DejaVuSans-48"/>
       </defs>
       <use xlink:href="#DejaVuSans-48"/>
      </g>
     </g>
    </g>
    <g id="ytick_2">
     <g id="line2d_9">
      <path clip-path="url(#p1a70cdd1c9)" d="M 72 336.342857 
L 684 336.342857 
" style="fill:none;stroke:#b0b0b0;stroke-linecap:square;stroke-width:0.8;"/>
     </g>
     <g id="line2d_10">
      <g>
       <use style="stroke:#000000;stroke-width:1.8;" x="72" xlink:href="#mc98d514988" y="336.342857"/>
      </g>
     </g>
     <g id="text_5">
      <!-- 5 -->
      <g transform="translate(53.838 341.813732)scale(0.144 -0.144)">
       <defs>
        <path d="M 10.796875 72.90625 
L 49.515625 72.90625 
L 49.515625 64.59375 
L 19.828125 64.59375 
L 19.828125 46.734375 
Q 21.96875 47.46875 24.109375 47.828125 
Q 26.265625 48.1875 28.421875 48.1875 
Q 40.625 48.1875 47.75 41.5 
Q 54.890625 34.8125 54.890625 23.390625 
Q 54.890625 11.625 47.5625 5.09375 
Q 40.234375 -1.421875 26.90625 -1.421875 
Q 22.3125 -1.421875 17.546875 -0.640625 
Q 12.796875 0.140625 7.71875 1.703125 
L 7.71875 11.625 
Q 12.109375 9.234375 16.796875 8.0625 
Q 21.484375 6.890625 26.703125 6.890625 
Q 35.15625 6.890625 40.078125 11.328125 
Q 45.015625 15.765625 45.015625 23.390625 
Q 45.015625 31 40.078125 35.4375 
Q 35.15625 39.890625 26.703125 39.890625 
Q 22.75 39.890625 18.8125 39.015625 
Q 14.890625 38.140625 10.796875 36.28125 
z
" id="DejaVuSans-53"/>
       </defs>
       <use xlink:href="#DejaVuSans-53"/>
      </g>
     </g>
    </g>
    <g id="ytick_3">
     <g id="line2d_11">
      <path clip-path="url(#p1a70cdd1c9)" d="M 72 283.885714 
L 684 283.885714 
" style="fill:none;stroke:#b0b0b0;stroke-linecap:square;stroke-width:0.8;"/>
     </g>
     <g id="line2d_12">
      <g>
       <use style="stroke:#000000;stroke-width:1.8;" x="72" xlink:href="#mc98d514988" y="283.885714"/>
      </g>
     </g>
     <g id="text_6">
      <!-- 10 -->
      <g transform="translate(44.676 289.356589)scale(0.144 -0.144)">
       <defs>
        <path d="M 12.40625 8.296875 
L 28.515625 8.296875 
L 28.515625 63.921875 
L 10.984375 60.40625 
L 10.984375 69.390625 
L 28.421875 72.90625 
L 38.28125 72.90625 
L 38.28125 8.296875 
L 54.390625 8.296875 
L 54.390625 0 
L 12.40625 0 
z
" id="DejaVuSans-49"/>
       </defs>
       <use xlink:href="#DejaVuSans-49"/>
       <use x="63.623047" xlink:href="#DejaVuSans-48"/>
      </g>
     </g>
    </g>
    <g id="ytick_4">
     <g id="line2d_13">
      <path clip-path="url(#p1a70cdd1c9)" d="M 72 231.428571 
L 684 231.428571 
" style="fill:none;stroke:#b0b0b0;stroke-linecap:square;stroke-width:0.8;"/>
     </g>
     <g id="line2d_14">
      <g>
       <use style="stroke:#000000;stroke-width:1.8;" x="72" xlink:href="#mc98d514988" y="231.428571"/>
      </g>
     </g>
     <g id="text_7">
      <!-- 15 -->
      <g transform="translate(44.676 236.899446)scale(0.144 -0.144)">
       <use xlink:href="#DejaVuSans-49"/>
       <use x="63.623047" xlink:href="#DejaVuSans-53"/>
      </g>
     </g>
    </g>
    <g id="ytick_5">
     <g id="line2d_15">
      <path clip-path="url(#p1a70cdd1c9)" d="M 72 178.971429 
L 684 178.971429 
" style="fill:none;stroke:#b0b0b0;stroke-linecap:square;stroke-width:0.8;"/>
     </g>
     <g id="line2d_16">
      <g>
       <use style="stroke:#000000;stroke-width:1.8;" x="72" xlink:href="#mc98d514988" y="178.971429"/>
      </g>
     </g>
     <g id="text_8">
      <!-- 20 -->
      <g transform="translate(44.676 184.442304)scale(0.144 -0.144)">
       <defs>
        <path d="M 19.1875 8.296875 
L 53.609375 8.296875 
L 53.609375 0 
L 7.328125 0 
L 7.328125 8.296875 
Q 12.9375 14.109375 22.625 23.890625 
Q 32.328125 33.6875 34.8125 36.53125 
Q 39.546875 41.84375 41.421875 45.53125 
Q 43.3125 49.21875 43.3125 52.78125 
Q 43.3125 58.59375 39.234375 62.25 
Q 35.15625 65.921875 28.609375 65.921875 
Q 23.96875 65.921875 18.8125 64.3125 
Q 13.671875 62.703125 7.8125 59.421875 
L 7.8125 69.390625 
Q 13.765625 71.78125 18.9375 73 
Q 24.125 74.21875 28.421875 74.21875 
Q 39.75 74.21875 46.484375 68.546875 
Q 53.21875 62.890625 53.21875 53.421875 
Q 53.21875 48.921875 51.53125 44.890625 
Q 49.859375 40.875 45.40625 35.40625 
Q 44.1875 33.984375 37.640625 27.21875 
Q 31.109375 20.453125 19.1875 8.296875 
z
" id="DejaVuSans-50"/>
       </defs>
       <use xlink:href="#DejaVuSans-50"/>
       <use x="63.623047" xlink:href="#DejaVuSans-48"/>
      </g>
     </g>
    </g>
    <g id="ytick_6">
     <g id="line2d_17">
      <path clip-path="url(#p1a70cdd1c9)" d="M 72 126.514286 
L 684 126.514286 
" style="fill:none;stroke:#b0b0b0;stroke-linecap:square;stroke-width:0.8;"/>
     </g>
     <g id="line2d_18">
      <g>
       <use style="stroke:#000000;stroke-width:1.8;" x="72" xlink:href="#mc98d514988" y="126.514286"/>
      </g>
     </g>
     <g id="text_9">
      <!-- 25 -->
      <g transform="translate(44.676 131.985161)scale(0.144 -0.144)">
       <use xlink:href="#DejaVuSans-50"/>
       <use x="63.623047" xlink:href="#DejaVuSans-53"/>
      </g>
     </g>
    </g>
    <g id="ytick_7">
     <g id="line2d_19">
      <path clip-path="url(#p1a70cdd1c9)" d="M 72 74.057143 
L 684 74.057143 
" style="fill:none;stroke:#b0b0b0;stroke-linecap:square;stroke-width:0.8;"/>
     </g>
     <g id="line2d_20">
      <g>
       <use style="stroke:#000000;stroke-width:1.8;" x="72" xlink:href="#mc98d514988" y="74.057143"/>
      </g>
     </g>
     <g id="text_10">
      <!-- 30 -->
      <g transform="translate(44.676 79.528018)scale(0.144 -0.144)">
       <defs>
        <path d="M 40.578125 39.3125 
Q 47.65625 37.796875 51.625 33 
Q 55.609375 28.21875 55.609375 21.1875 
Q 55.609375 10.40625 48.1875 4.484375 
Q 40.765625 -1.421875 27.09375 -1.421875 
Q 22.515625 -1.421875 17.65625 -0.515625 
Q 12.796875 0.390625 7.625 2.203125 
L 7.625 11.71875 
Q 11.71875 9.328125 16.59375 8.109375 
Q 21.484375 6.890625 26.8125 6.890625 
Q 36.078125 6.890625 40.9375 10.546875 
Q 45.796875 14.203125 45.796875 21.1875 
Q 45.796875 27.640625 41.28125 31.265625 
Q 36.765625 34.90625 28.71875 34.90625 
L 20.21875 34.90625 
L 20.21875 43.015625 
L 29.109375 43.015625 
Q 36.375 43.015625 40.234375 45.921875 
Q 44.09375 48.828125 44.09375 54.296875 
Q 44.09375 59.90625 40.109375 62.90625 
Q 36.140625 65.921875 28.71875 65.921875 
Q 24.65625 65.921875 20.015625 65.03125 
Q 15.375 64.15625 9.8125 62.3125 
L 9.8125 71.09375 
Q 15.4375 72.65625 20.34375 73.4375 
Q 25.25 74.21875 29.59375 74.21875 
Q 40.828125 74.21875 47.359375 69.109375 
Q 53.90625 64.015625 53.90625 55.328125 
Q 53.90625 49.265625 50.4375 45.09375 
Q 46.96875 40.921875 40.578125 39.3125 
z
" id="DejaVuSans-51"/>
       </defs>
       <use xlink:href="#DejaVuSans-51"/>
       <use x="63.623047" xlink:href="#DejaVuSans-48"/>
      </g>
     </g>
    </g>
    <g id="ytick_8">
     <g id="line2d_21">
      <path clip-path="url(#p1a70cdd1c9)" d="M 72 21.6 
L 684 21.6 
" style="fill:none;stroke:#b0b0b0;stroke-linecap:square;stroke-width:0.8;"/>
     </g>
     <g id="line2d_22">
      <g>
       <use style="stroke:#000000;stroke-width:1.8;" x="72" xlink:href="#mc98d514988" y="21.6"/>
      </g>
     </g>
     <g id="text_11">
      <!-- 35 -->
      <g transform="translate(44.676 27.070875)scale(0.144 -0.144)">
       <use xlink:href="#DejaVuSans-51"/>
       <use x="63.623047" xlink:href="#DejaVuSans-53"/>
      </g>
     </g>
    </g>
    <g id="text_12">
     <!-- $POD_1$ $(mmol\,O_3\,m^{-2})$ -->
     <g transform="translate(37.0823 301.8816)rotate(-90)scale(0.1728 -0.1728)">
      <defs>
       <path d="M 9.1875 72.90625 
L 40.375 72.90625 
Q 54.296875 72.90625 61.734375 66.71875 
Q 69.1875 60.546875 69.1875 49.125 
Q 69.1875 37.640625 61.734375 31.46875 
Q 54.296875 25.296875 40.375 25.296875 
L 27.984375 25.296875 
L 27.984375 0 
L 9.1875 0 
z
M 27.984375 59.28125 
L 27.984375 38.921875 
L 38.375 38.921875 
Q 43.84375 38.921875 46.828125 41.578125 
Q 49.8125 44.234375 49.8125 49.125 
Q 49.8125 54 46.828125 56.640625 
Q 43.84375 59.28125 38.375 59.28125 
z
" id="DejaVuSans-Bold-80"/>
       <path d="M 42.484375 60.59375 
Q 33.890625 60.59375 29.15625 54.25 
Q 24.421875 47.90625 24.421875 36.375 
Q 24.421875 24.90625 29.15625 18.546875 
Q 33.890625 12.203125 42.484375 12.203125 
Q 51.125 12.203125 55.859375 18.546875 
Q 60.59375 24.90625 60.59375 36.375 
Q 60.59375 47.90625 55.859375 54.25 
Q 51.125 60.59375 42.484375 60.59375 
z
M 42.484375 74.21875 
Q 60.0625 74.21875 70.015625 64.15625 
Q 79.984375 54.109375 79.984375 36.375 
Q 79.984375 18.703125 70.015625 8.640625 
Q 60.0625 -1.421875 42.484375 -1.421875 
Q 24.953125 -1.421875 14.96875 8.640625 
Q 4.984375 18.703125 4.984375 36.375 
Q 4.984375 54.109375 14.96875 64.15625 
Q 24.953125 74.21875 42.484375 74.21875 
z
" id="DejaVuSans-Bold-79"/>
       <path d="M 27.984375 58.6875 
L 27.984375 14.203125 
L 34.71875 14.203125 
Q 46.234375 14.203125 52.3125 19.921875 
Q 58.40625 25.640625 58.40625 36.53125 
Q 58.40625 47.359375 52.34375 53.015625 
Q 46.296875 58.6875 34.71875 58.6875 
z
M 9.1875 72.90625 
L 29 72.90625 
Q 45.609375 72.90625 53.734375 70.53125 
Q 61.859375 68.171875 67.671875 62.5 
Q 72.796875 57.5625 75.28125 51.109375 
Q 77.78125 44.671875 77.78125 36.53125 
Q 77.78125 28.265625 75.28125 21.796875 
Q 72.796875 15.328125 67.671875 10.40625 
Q 61.8125 4.734375 53.609375 2.359375 
Q 45.40625 0 29 0 
L 9.1875 0 
z
" id="DejaVuSans-Bold-68"/>
       <path d="M 11.71875 12.984375 
L 28.328125 12.984375 
L 28.328125 60.109375 
L 11.28125 56.59375 
L 11.28125 69.390625 
L 28.21875 72.90625 
L 46.09375 72.90625 
L 46.09375 12.984375 
L 62.703125 12.984375 
L 62.703125 0 
L 11.71875 0 
z
" id="DejaVuSans-Bold-49"/>
       <path id="DejaVuSans-Bold-32"/>
       <path d="M 37.703125 -13.1875 
L 23.1875 -13.1875 
Q 15.71875 -1.125 12.15625 9.734375 
Q 8.59375 20.609375 8.59375 31.296875 
Q 8.59375 42 12.171875 52.953125 
Q 15.765625 63.921875 23.1875 75.875 
L 37.703125 75.875 
Q 31.453125 64.3125 28.328125 53.25 
Q 25.203125 42.1875 25.203125 31.390625 
Q 25.203125 20.609375 28.296875 9.515625 
Q 31.390625 -1.5625 37.703125 -13.1875 
z
" id="DejaVuSans-Bold-40"/>
       <path d="M 59.078125 45.609375 
Q 62.40625 50.6875 66.96875 53.34375 
Q 71.53125 56 77 56 
Q 86.421875 56 91.359375 50.1875 
Q 96.296875 44.390625 96.296875 33.296875 
L 96.296875 0 
L 78.71875 0 
L 78.71875 28.515625 
Q 78.765625 29.15625 78.78125 29.828125 
Q 78.8125 30.515625 78.8125 31.78125 
Q 78.8125 37.59375 77.09375 40.203125 
Q 75.390625 42.828125 71.578125 42.828125 
Q 66.609375 42.828125 63.890625 38.71875 
Q 61.1875 34.625 61.078125 26.859375 
L 61.078125 0 
L 43.5 0 
L 43.5 28.515625 
Q 43.5 37.59375 41.9375 40.203125 
Q 40.375 42.828125 36.375 42.828125 
Q 31.34375 42.828125 28.609375 38.703125 
Q 25.875 34.578125 25.875 26.90625 
L 25.875 0 
L 8.296875 0 
L 8.296875 54.6875 
L 25.875 54.6875 
L 25.875 46.6875 
Q 29.109375 51.3125 33.28125 53.65625 
Q 37.453125 56 42.484375 56 
Q 48.140625 56 52.484375 53.265625 
Q 56.84375 50.53125 59.078125 45.609375 
z
" id="DejaVuSans-Bold-109"/>
       <path d="M 34.421875 43.5 
Q 28.609375 43.5 25.5625 39.328125 
Q 22.515625 35.15625 22.515625 27.296875 
Q 22.515625 19.4375 25.5625 15.25 
Q 28.609375 11.078125 34.421875 11.078125 
Q 40.140625 11.078125 43.15625 15.25 
Q 46.1875 19.4375 46.1875 27.296875 
Q 46.1875 35.15625 43.15625 39.328125 
Q 40.140625 43.5 34.421875 43.5 
z
M 34.421875 56 
Q 48.53125 56 56.46875 48.375 
Q 64.40625 40.765625 64.40625 27.296875 
Q 64.40625 13.8125 56.46875 6.1875 
Q 48.53125 -1.421875 34.421875 -1.421875 
Q 20.265625 -1.421875 12.28125 6.1875 
Q 4.296875 13.8125 4.296875 27.296875 
Q 4.296875 40.765625 12.28125 48.375 
Q 20.265625 56 34.421875 56 
z
" id="DejaVuSans-Bold-111"/>
       <path d="M 8.40625 75.984375 
L 25.875 75.984375 
L 25.875 0 
L 8.40625 0 
z
" id="DejaVuSans-Bold-108"/>
       <path d="M 46.578125 39.3125 
Q 53.953125 37.40625 57.78125 32.6875 
Q 61.625 27.984375 61.625 20.703125 
Q 61.625 9.859375 53.3125 4.21875 
Q 45.015625 -1.421875 29.109375 -1.421875 
Q 23.484375 -1.421875 17.84375 -0.515625 
Q 12.203125 0.390625 6.6875 2.203125 
L 6.6875 16.703125 
Q 11.96875 14.0625 17.15625 12.71875 
Q 22.359375 11.375 27.390625 11.375 
Q 34.859375 11.375 38.84375 13.953125 
Q 42.828125 16.546875 42.828125 21.390625 
Q 42.828125 26.375 38.75 28.9375 
Q 34.671875 31.5 26.703125 31.5 
L 19.1875 31.5 
L 19.1875 43.609375 
L 27.09375 43.609375 
Q 34.1875 43.609375 37.640625 45.828125 
Q 41.109375 48.046875 41.109375 52.59375 
Q 41.109375 56.78125 37.734375 59.078125 
Q 34.375 61.375 28.21875 61.375 
Q 23.6875 61.375 19.046875 60.34375 
Q 14.40625 59.328125 9.8125 57.328125 
L 9.8125 71.09375 
Q 15.375 72.65625 20.84375 73.4375 
Q 26.3125 74.21875 31.59375 74.21875 
Q 45.796875 74.21875 52.84375 69.546875 
Q 59.90625 64.890625 59.90625 55.515625 
Q 59.90625 49.125 56.53125 45.046875 
Q 53.171875 40.96875 46.578125 39.3125 
z
" id="DejaVuSans-Bold-51"/>
       <path d="M 10.59375 37.109375 
L 73.1875 37.109375 
L 73.1875 25.59375 
L 10.59375 25.59375 
z
" id="DejaVuSans-Bold-8722"/>
       <path d="M 28.8125 13.8125 
L 60.890625 13.8125 
L 60.890625 0 
L 7.90625 0 
L 7.90625 13.8125 
L 34.515625 37.3125 
Q 38.09375 40.53125 39.796875 43.609375 
Q 41.5 46.6875 41.5 50 
Q 41.5 55.125 38.0625 58.25 
Q 34.625 61.375 28.90625 61.375 
Q 24.515625 61.375 19.28125 59.5 
Q 14.0625 57.625 8.109375 53.90625 
L 8.109375 69.921875 
Q 14.453125 72.015625 20.65625 73.109375 
Q 26.859375 74.21875 32.8125 74.21875 
Q 45.90625 74.21875 53.15625 68.453125 
Q 60.40625 62.703125 60.40625 52.390625 
Q 60.40625 46.4375 57.328125 41.28125 
Q 54.25 36.140625 44.390625 27.484375 
z
" id="DejaVuSans-Bold-50"/>
       <path d="M 8.015625 -13.1875 
Q 14.265625 -1.5625 17.390625 9.515625 
Q 20.515625 20.609375 20.515625 31.390625 
Q 20.515625 42.1875 17.390625 53.25 
Q 14.265625 64.3125 8.015625 75.875 
L 22.515625 75.875 
Q 29.9375 63.921875 33.515625 52.953125 
Q 37.109375 42 37.109375 31.296875 
Q 37.109375 20.609375 33.546875 9.734375 
Q 29.984375 -1.125 22.515625 -13.1875 
z
" id="DejaVuSans-Bold-41"/>
      </defs>
      <use transform="translate(0 0.765625)" xlink:href="#DejaVuSans-Bold-80"/>
      <use transform="translate(73.291016 0.765625)" xlink:href="#DejaVuSans-Bold-79"/>
      <use transform="translate(158.300781 0.765625)" xlink:href="#DejaVuSans-Bold-68"/>
      <use transform="translate(242.265625 -15.640625)scale(0.7)" xlink:href="#DejaVuSans-Bold-49"/>
      <use transform="translate(293.706055 0.765625)" xlink:href="#DejaVuSans-Bold-32"/>
      <use transform="translate(328.520508 0.765625)" xlink:href="#DejaVuSans-Bold-40"/>
      <use transform="translate(374.223633 0.765625)" xlink:href="#DejaVuSans-Bold-109"/>
      <use transform="translate(478.422852 0.765625)" xlink:href="#DejaVuSans-Bold-109"/>
      <use transform="translate(582.62207 0.765625)" xlink:href="#DejaVuSans-Bold-111"/>
      <use transform="translate(651.323242 0.765625)" xlink:href="#DejaVuSans-Bold-108"/>
      <use transform="translate(702.96747 0.765625)" xlink:href="#DejaVuSans-Bold-79"/>
      <use transform="translate(788.934267 -15.640625)scale(0.7)" xlink:href="#DejaVuSans-Bold-51"/>
      <use transform="translate(857.74158 0.765625)" xlink:href="#DejaVuSans-Bold-109"/>
      <use transform="translate(962.89783 39.046875)scale(0.7)" xlink:href="#DejaVuSans-Bold-8722"/>
      <use transform="translate(1021.550174 39.046875)scale(0.7)" xlink:href="#DejaVuSans-Bold-50"/>
      <use transform="translate(1072.990604 0.765625)" xlink:href="#DejaVuSans-Bold-41"/>
     </g>
    </g>
   </g>
   <g id="line2d_23">
    <path clip-path="url(#p1a70cdd1c9)" d="M 72 334.244571 
L 684 334.244571 
" style="fill:none;stroke:#808080;stroke-dasharray:11.1,4.8;stroke-dashoffset:0;stroke-opacity:0.5;stroke-width:3;"/>
   </g>
   <g id="line2d_24">
    <path clip-path="url(#p1a70cdd1c9)" d="M 488.5 195.05736 
L 522.5 175.038424 
L 556.5 218.624573 
" style="fill:none;stroke:#ee82ee;stroke-dasharray:2.625,1.925;stroke-dashoffset:0;stroke-opacity:0.45;stroke-width:1.75;"/>
    <defs>
     <path d="M -4.5 4.5 
L 4.5 4.5 
L 4.5 -4.5 
L -4.5 -4.5 
z
" id="m750971680d" style="stroke:#ee82ee;stroke-linejoin:miter;stroke-opacity:0.45;"/>
    </defs>
    <g clip-path="url(#p1a70cdd1c9)">
     <use style="fill:#ee82ee;fill-opacity:0.45;stroke:#ee82ee;stroke-linejoin:miter;stroke-opacity:0.45;" x="488.5" xlink:href="#m750971680d" y="195.05736"/>
     <use style="fill:#ee82ee;fill-opacity:0.45;stroke:#ee82ee;stroke-linejoin:miter;stroke-opacity:0.45;" x="522.5" xlink:href="#m750971680d" y="175.038424"/>
     <use style="fill:#ee82ee;fill-opacity:0.45;stroke:#ee82ee;stroke-linejoin:miter;stroke-opacity:0.45;" x="556.5" xlink:href="#m750971680d" y="218.624573"/>
    </g>
   </g>
   <g id="line2d_25">
    <path clip-path="url(#p1a70cdd1c9)" d="M 590.5 254.174041 
L 624.5 238.604439 
L 658.5 272.360877 
" style="fill:none;stroke:#800080;stroke-dasharray:2.625,1.925;stroke-dashoffset:0;stroke-opacity:0.45;stroke-width:1.75;"/>
    <defs>
     <path d="M -4.5 4.5 
L 4.5 4.5 
L 4.5 -4.5 
L -4.5 -4.5 
z
" id="m6f137d9ed6" style="stroke:#800080;stroke-linejoin:miter;stroke-opacity:0.45;"/>
    </defs>
    <g clip-path="url(#p1a70cdd1c9)">
     <use style="fill:#800080;fill-opacity:0.45;stroke:#800080;stroke-linejoin:miter;stroke-opacity:0.45;" x="590.5" xlink:href="#m6f137d9ed6" y="254.174041"/>
     <use style="fill:#800080;fill-opacity:0.45;stroke:#800080;stroke-linejoin:miter;stroke-opacity:0.45;" x="624.5" xlink:href="#m6f137d9ed6" y="238.604439"/>
     <use style="fill:#800080;fill-opacity:0.45;stroke:#800080;stroke-linejoin:miter;stroke-opacity:0.45;" x="658.5" xlink:href="#m6f137d9ed6" y="272.360877"/>
    </g>
   </g>
   <g id="line2d_26">
    <path clip-path="url(#p1a70cdd1c9)" d="M 505.5 201.75806 
L 539.5 196.380635 
L 573.5 218.892398 
" style="fill:none;stroke:#ee82ee;stroke-dasharray:2.625,1.925;stroke-dashoffset:0;stroke-opacity:0.45;stroke-width:1.75;"/>
    <defs>
     <path d="M -4.5 4.5 
L 4.5 4.5 
L 4.5 -4.5 
L -4.5 -4.5 
z
" id="m95a4fae0b2" style="stroke:#ee82ee;stroke-linejoin:miter;stroke-opacity:0.45;"/>
    </defs>
    <g clip-path="url(#p1a70cdd1c9)">
     <use style="fill-opacity:0;stroke:#ee82ee;stroke-linejoin:miter;stroke-opacity:0.45;" x="505.5" xlink:href="#m95a4fae0b2" y="201.75806"/>
     <use style="fill-opacity:0;stroke:#ee82ee;stroke-linejoin:miter;stroke-opacity:0.45;" x="539.5" xlink:href="#m95a4fae0b2" y="196.380635"/>
     <use style="fill-opacity:0;stroke:#ee82ee;stroke-linejoin:miter;stroke-opacity:0.45;" x="573.5" xlink:href="#m95a4fae0b2" y="218.892398"/>
    </g>
   </g>
   <g id="line2d_27">
    <path clip-path="url(#p1a70cdd1c9)" d="M 607.5 254.174041 
L 641.5 238.604439 
L 675.5 272.360877 
" style="fill:none;stroke:#800080;stroke-dasharray:2.625,1.925;stroke-dashoffset:0;stroke-opacity:0.45;stroke-width:1.75;"/>
    <defs>
     <path d="M -4.5 4.5 
L 4.5 4.5 
L 4.5 -4.5 
L -4.5 -4.5 
z
" id="m22ca1b28d0" style="stroke:#800080;stroke-linejoin:miter;stroke-opacity:0.45;"/>
    </defs>
    <g clip-path="url(#p1a70cdd1c9)">
     <use style="fill-opacity:0;stroke:#800080;stroke-linejoin:miter;stroke-opacity:0.45;" x="607.5" xlink:href="#m22ca1b28d0" y="254.174041"/>
     <use style="fill-opacity:0;stroke:#800080;stroke-linejoin:miter;stroke-opacity:0.45;" x="641.5" xlink:href="#m22ca1b28d0" y="238.604439"/>
     <use style="fill-opacity:0;stroke:#800080;stroke-linejoin:miter;stroke-opacity:0.45;" x="675.5" xlink:href="#m22ca1b28d0" y="272.360877"/>
    </g>
   </g>
   <g id="line2d_28">
    <path clip-path="url(#p1a70cdd1c9)" d="M 488.5 250.702005 
L 522.5 238.38426 
L 556.5 268.196587 
" style="fill:none;stroke:#ee82ee;stroke-linecap:square;stroke-width:1.75;"/>
    <defs>
     <path d="M 0 4.5 
C 1.193414 4.5 2.338109 4.025852 3.181981 3.181981 
C 4.025852 2.338109 4.5 1.193414 4.5 0 
C 4.5 -1.193414 4.025852 -2.338109 3.181981 -3.181981 
C 2.338109 -4.025852 1.193414 -4.5 0 -4.5 
C -1.193414 -4.5 -2.338109 -4.025852 -3.181981 -3.181981 
C -4.025852 -2.338109 -4.5 -1.193414 -4.5 0 
C -4.5 1.193414 -4.025852 2.338109 -3.181981 3.181981 
C -2.338109 4.025852 -1.193414 4.5 0 4.5 
z
" id="m71c23bf554" style="stroke:#ee82ee;"/>
    </defs>
    <g clip-path="url(#p1a70cdd1c9)">
     <use style="fill:#ee82ee;stroke:#ee82ee;" x="488.5" xlink:href="#m71c23bf554" y="250.702005"/>
     <use style="fill:#ee82ee;stroke:#ee82ee;" x="522.5" xlink:href="#m71c23bf554" y="238.38426"/>
     <use style="fill:#ee82ee;stroke:#ee82ee;" x="556.5" xlink:href="#m71c23bf554" y="268.196587"/>
    </g>
   </g>
   <g id="line2d_29">
    <path clip-path="url(#p1a70cdd1c9)" d="M 590.5 272.530959 
L 624.5 261.488743 
L 658.5 288.206879 
" style="fill:none;stroke:#800080;stroke-dasharray:6.475,2.8;stroke-dashoffset:0;stroke-width:1.75;"/>
    <defs>
     <path d="M 0 4.5 
C 1.193414 4.5 2.338109 4.025852 3.181981 3.181981 
C 4.025852 2.338109 4.5 1.193414 4.5 0 
C 4.5 -1.193414 4.025852 -2.338109 3.181981 -3.181981 
C 2.338109 -4.025852 1.193414 -4.5 0 -4.5 
C -1.193414 -4.5 -2.338109 -4.025852 -3.181981 -3.181981 
C -4.025852 -2.338109 -4.5 -1.193414 -4.5 0 
C -4.5 1.193414 -4.025852 2.338109 -3.181981 3.181981 
C -2.338109 4.025852 -1.193414 4.5 0 4.5 
z
" id="m6a3e21ef48" style="stroke:#800080;"/>
    </defs>
    <g clip-path="url(#p1a70cdd1c9)">
     <use style="fill:#800080;stroke:#800080;" x="590.5" xlink:href="#m6a3e21ef48" y="272.530959"/>
     <use style="fill:#800080;stroke:#800080;" x="624.5" xlink:href="#m6a3e21ef48" y="261.488743"/>
     <use style="fill:#800080;stroke:#800080;" x="658.5" xlink:href="#m6a3e21ef48" y="288.206879"/>
    </g>
   </g>
   <g id="line2d_30">
    <path clip-path="url(#p1a70cdd1c9)" d="M 505.5 252.626935 
L 539.5 246.042688 
L 573.5 268.196587 
" style="fill:none;stroke:#ee82ee;stroke-linecap:square;stroke-width:1.75;"/>
    <defs>
     <path d="M 0 4.5 
C 1.193414 4.5 2.338109 4.025852 3.181981 3.181981 
C 4.025852 2.338109 4.5 1.193414 4.5 0 
C 4.5 -1.193414 4.025852 -2.338109 3.181981 -3.181981 
C 2.338109 -4.025852 1.193414 -4.5 0 -4.5 
C -1.193414 -4.5 -2.338109 -4.025852 -3.181981 -3.181981 
C -4.025852 -2.338109 -4.5 -1.193414 -4.5 0 
C -4.5 1.193414 -4.025852 2.338109 -3.181981 3.181981 
C -2.338109 4.025852 -1.193414 4.5 0 4.5 
z
" id="m403ab83fd3" style="stroke:#ee82ee;"/>
    </defs>
    <g clip-path="url(#p1a70cdd1c9)">
     <use style="fill-opacity:0;stroke:#ee82ee;" x="505.5" xlink:href="#m403ab83fd3" y="252.626935"/>
     <use style="fill-opacity:0;stroke:#ee82ee;" x="539.5" xlink:href="#m403ab83fd3" y="246.042688"/>
     <use style="fill-opacity:0;stroke:#ee82ee;" x="573.5" xlink:href="#m403ab83fd3" y="268.196587"/>
    </g>
   </g>
   <g id="line2d_31">
    <path clip-path="url(#p1a70cdd1c9)" d="M 607.5 272.530959 
L 641.5 261.488743 
L 675.5 288.206879 
" style="fill:none;stroke:#800080;stroke-dasharray:6.475,2.8;stroke-dashoffset:0;stroke-width:1.75;"/>
    <defs>
     <path d="M 0 4.5 
C 1.193414 4.5 2.338109 4.025852 3.181981 3.181981 
C 4.025852 2.338109 4.5 1.193414 4.5 0 
C 4.5 -1.193414 4.025852 -2.338109 3.181981 -3.181981 
C 2.338109 -4.025852 1.193414 -4.5 0 -4.5 
C -1.193414 -4.5 -2.338109 -4.025852 -3.181981 -3.181981 
C -4.025852 -2.338109 -4.5 -1.193414 -4.5 0 
C -4.5 1.193414 -4.025852 2.338109 -3.181981 3.181981 
C -2.338109 4.025852 -1.193414 4.5 0 4.5 
z
" id="mb3aee840e8" style="stroke:#800080;"/>
    </defs>
    <g clip-path="url(#p1a70cdd1c9)">
     <use style="fill-opacity:0;stroke:#800080;" x="607.5" xlink:href="#mb3aee840e8" y="272.530959"/>
     <use style="fill-opacity:0;stroke:#800080;" x="641.5" xlink:href="#mb3aee840e8" y="261.488743"/>
     <use style="fill-opacity:0;stroke:#800080;" x="675.5" xlink:href="#mb3aee840e8" y="288.206879"/>
    </g>
   </g>
   <g id="line2d_32">
    <path clip-path="url(#p1a70cdd1c9)" d="M 284.5 168.240911 
L 318.5 149.189978 
L 352.5 195.1686 
" style="fill:none;stroke:#ee82ee;stroke-dasharray:2.625,1.925;stroke-dashoffset:0;stroke-opacity:0.45;stroke-width:1.75;"/>
    <g clip-path="url(#p1a70cdd1c9)">
     <use style="fill:#ee82ee;fill-opacity:0.45;stroke:#ee82ee;stroke-linejoin:miter;stroke-opacity:0.45;" x="284.5" xlink:href="#m750971680d" y="168.240911"/>
     <use style="fill:#ee82ee;fill-opacity:0.45;stroke:#ee82ee;stroke-linejoin:miter;stroke-opacity:0.45;" x="318.5" xlink:href="#m750971680d" y="149.189978"/>
     <use style="fill:#ee82ee;fill-opacity:0.45;stroke:#ee82ee;stroke-linejoin:miter;stroke-opacity:0.45;" x="352.5" xlink:href="#m750971680d" y="195.1686"/>
    </g>
   </g>
   <g id="line2d_33">
    <path clip-path="url(#p1a70cdd1c9)" d="M 386.5 218.782239 
L 420.5 202.708134 
L 454.5 241.406042 
" style="fill:none;stroke:#800080;stroke-dasharray:2.625,1.925;stroke-dashoffset:0;stroke-opacity:0.45;stroke-width:1.75;"/>
    <g clip-path="url(#p1a70cdd1c9)">
     <use style="fill:#800080;fill-opacity:0.45;stroke:#800080;stroke-linejoin:miter;stroke-opacity:0.45;" x="386.5" xlink:href="#m6f137d9ed6" y="218.782239"/>
     <use style="fill:#800080;fill-opacity:0.45;stroke:#800080;stroke-linejoin:miter;stroke-opacity:0.45;" x="420.5" xlink:href="#m6f137d9ed6" y="202.708134"/>
     <use style="fill:#800080;fill-opacity:0.45;stroke:#800080;stroke-linejoin:miter;stroke-opacity:0.45;" x="454.5" xlink:href="#m6f137d9ed6" y="241.406042"/>
    </g>
   </g>
   <g id="line2d_34">
    <path clip-path="url(#p1a70cdd1c9)" d="M 301.5 179.64051 
L 335.5 172.042985 
L 369.5 195.794658 
" style="fill:none;stroke:#ee82ee;stroke-dasharray:2.625,1.925;stroke-dashoffset:0;stroke-opacity:0.45;stroke-width:1.75;"/>
    <g clip-path="url(#p1a70cdd1c9)">
     <use style="fill-opacity:0;stroke:#ee82ee;stroke-linejoin:miter;stroke-opacity:0.45;" x="301.5" xlink:href="#m95a4fae0b2" y="179.64051"/>
     <use style="fill-opacity:0;stroke:#ee82ee;stroke-linejoin:miter;stroke-opacity:0.45;" x="335.5" xlink:href="#m95a4fae0b2" y="172.042985"/>
     <use style="fill-opacity:0;stroke:#ee82ee;stroke-linejoin:miter;stroke-opacity:0.45;" x="369.5" xlink:href="#m95a4fae0b2" y="195.794658"/>
    </g>
   </g>
   <g id="line2d_35">
    <path clip-path="url(#p1a70cdd1c9)" d="M 403.5 218.782239 
L 437.5 202.708134 
L 471.5 241.406042 
" style="fill:none;stroke:#800080;stroke-dasharray:2.625,1.925;stroke-dashoffset:0;stroke-opacity:0.45;stroke-width:1.75;"/>
    <g clip-path="url(#p1a70cdd1c9)">
     <use style="fill-opacity:0;stroke:#800080;stroke-linejoin:miter;stroke-opacity:0.45;" x="403.5" xlink:href="#m22ca1b28d0" y="218.782239"/>
     <use style="fill-opacity:0;stroke:#800080;stroke-linejoin:miter;stroke-opacity:0.45;" x="437.5" xlink:href="#m22ca1b28d0" y="202.708134"/>
     <use style="fill-opacity:0;stroke:#800080;stroke-linejoin:miter;stroke-opacity:0.45;" x="471.5" xlink:href="#m22ca1b28d0" y="241.406042"/>
    </g>
   </g>
   <g id="line2d_36">
    <path clip-path="url(#p1a70cdd1c9)" d="M 284.5 235.117845 
L 318.5 221.063141 
L 352.5 254.925847 
" style="fill:none;stroke:#ee82ee;stroke-linecap:square;stroke-width:1.75;"/>
    <g clip-path="url(#p1a70cdd1c9)">
     <use style="fill:#ee82ee;stroke:#ee82ee;" x="284.5" xlink:href="#m71c23bf554" y="235.117845"/>
     <use style="fill:#ee82ee;stroke:#ee82ee;" x="318.5" xlink:href="#m71c23bf554" y="221.063141"/>
     <use style="fill:#ee82ee;stroke:#ee82ee;" x="352.5" xlink:href="#m71c23bf554" y="254.925847"/>
    </g>
   </g>
   <g id="line2d_37">
    <path clip-path="url(#p1a70cdd1c9)" d="M 386.5 244.095756 
L 420.5 230.470564 
L 454.5 263.388109 
" style="fill:none;stroke:#800080;stroke-dasharray:6.475,2.8;stroke-dashoffset:0;stroke-width:1.75;"/>
    <g clip-path="url(#p1a70cdd1c9)">
     <use style="fill:#800080;stroke:#800080;" x="386.5" xlink:href="#m6a3e21ef48" y="244.095756"/>
     <use style="fill:#800080;stroke:#800080;" x="420.5" xlink:href="#m6a3e21ef48" y="230.470564"/>
     <use style="fill:#800080;stroke:#800080;" x="454.5" xlink:href="#m6a3e21ef48" y="263.388109"/>
    </g>
   </g>
   <g id="line2d_38">
    <path clip-path="url(#p1a70cdd1c9)" d="M 301.5 237.230296 
L 335.5 230.895864 
L 369.5 254.925847 
" style="fill:none;stroke:#ee82ee;stroke-linecap:square;stroke-width:1.75;"/>
    <g clip-path="url(#p1a70cdd1c9)">
     <use style="fill-opacity:0;stroke:#ee82ee;" x="301.5" xlink:href="#m403ab83fd3" y="237.230296"/>
     <use style="fill-opacity:0;stroke:#ee82ee;" x="335.5" xlink:href="#m403ab83fd3" y="230.895864"/>
     <use style="fill-opacity:0;stroke:#ee82ee;" x="369.5" xlink:href="#m403ab83fd3" y="254.925847"/>
    </g>
   </g>
   <g id="line2d_39">
    <path clip-path="url(#p1a70cdd1c9)" d="M 403.5 244.095756 
L 437.5 230.470564 
L 471.5 263.388109 
" style="fill:none;stroke:#800080;stroke-dasharray:6.475,2.8;stroke-dashoffset:0;stroke-width:1.75;"/>
    <g clip-path="url(#p1a70cdd1c9)">
     <use style="fill-opacity:0;stroke:#800080;" x="403.5" xlink:href="#mb3aee840e8" y="244.095756"/>
     <use style="fill-opacity:0;stroke:#800080;" x="437.5" xlink:href="#mb3aee840e8" y="230.470564"/>
     <use style="fill-opacity:0;stroke:#800080;" x="471.5" xlink:href="#mb3aee840e8" y="263.388109"/>
    </g>
   </g>
   <g id="line2d_40">
    <path clip-path="url(#p1a70cdd1c9)" d="M 80.5 94.842773 
L 114.5 67.815931 
L 148.5 132.497138 
" style="fill:none;stroke:#ee82ee;stroke-dasharray:2.625,1.925;stroke-dashoffset:0;stroke-opacity:0.45;stroke-width:1.75;"/>
    <g clip-path="url(#p1a70cdd1c9)">
     <use style="fill:#ee82ee;fill-opacity:0.45;stroke:#ee82ee;stroke-linejoin:miter;stroke-opacity:0.45;" x="80.5" xlink:href="#m750971680d" y="94.842773"/>
     <use style="fill:#ee82ee;fill-opacity:0.45;stroke:#ee82ee;stroke-linejoin:miter;stroke-opacity:0.45;" x="114.5" xlink:href="#m750971680d" y="67.815931"/>
     <use style="fill:#ee82ee;fill-opacity:0.45;stroke:#ee82ee;stroke-linejoin:miter;stroke-opacity:0.45;" x="148.5" xlink:href="#m750971680d" y="132.497138"/>
    </g>
   </g>
   <g id="line2d_41">
    <path clip-path="url(#p1a70cdd1c9)" d="M 182.5 121.988841 
L 216.5 94.473494 
L 250.5 159.686929 
" style="fill:none;stroke:#800080;stroke-dasharray:2.625,1.925;stroke-dashoffset:0;stroke-opacity:0.45;stroke-width:1.75;"/>
    <g clip-path="url(#p1a70cdd1c9)">
     <use style="fill:#800080;fill-opacity:0.45;stroke:#800080;stroke-linejoin:miter;stroke-opacity:0.45;" x="182.5" xlink:href="#m6f137d9ed6" y="121.988841"/>
     <use style="fill:#800080;fill-opacity:0.45;stroke:#800080;stroke-linejoin:miter;stroke-opacity:0.45;" x="216.5" xlink:href="#m6f137d9ed6" y="94.473494"/>
     <use style="fill:#800080;fill-opacity:0.45;stroke:#800080;stroke-linejoin:miter;stroke-opacity:0.45;" x="250.5" xlink:href="#m6f137d9ed6" y="159.686929"/>
    </g>
   </g>
   <g id="line2d_42">
    <path clip-path="url(#p1a70cdd1c9)" d="M 97.5 114.607673 
L 131.5 104.917657 
L 165.5 136.232256 
" style="fill:none;stroke:#ee82ee;stroke-dasharray:2.625,1.925;stroke-dashoffset:0;stroke-opacity:0.45;stroke-width:1.75;"/>
    <g clip-path="url(#p1a70cdd1c9)">
     <use style="fill-opacity:0;stroke:#ee82ee;stroke-linejoin:miter;stroke-opacity:0.45;" x="97.5" xlink:href="#m95a4fae0b2" y="114.607673"/>
     <use style="fill-opacity:0;stroke:#ee82ee;stroke-linejoin:miter;stroke-opacity:0.45;" x="131.5" xlink:href="#m95a4fae0b2" y="104.917657"/>
     <use style="fill-opacity:0;stroke:#ee82ee;stroke-linejoin:miter;stroke-opacity:0.45;" x="165.5" xlink:href="#m95a4fae0b2" y="136.232256"/>
    </g>
   </g>
   <g id="line2d_43">
    <path clip-path="url(#p1a70cdd1c9)" d="M 199.5 121.988841 
L 233.5 94.530625 
L 267.5 159.686929 
" style="fill:none;stroke:#800080;stroke-dasharray:2.625,1.925;stroke-dashoffset:0;stroke-opacity:0.45;stroke-width:1.75;"/>
    <g clip-path="url(#p1a70cdd1c9)">
     <use style="fill-opacity:0;stroke:#800080;stroke-linejoin:miter;stroke-opacity:0.45;" x="199.5" xlink:href="#m22ca1b28d0" y="121.988841"/>
     <use style="fill-opacity:0;stroke:#800080;stroke-linejoin:miter;stroke-opacity:0.45;" x="233.5" xlink:href="#m22ca1b28d0" y="94.530625"/>
     <use style="fill-opacity:0;stroke:#800080;stroke-linejoin:miter;stroke-opacity:0.45;" x="267.5" xlink:href="#m22ca1b28d0" y="159.686929"/>
    </g>
   </g>
   <g id="line2d_44">
    <path clip-path="url(#p1a70cdd1c9)" d="M 80.5 212.75076 
L 114.5 195.405148 
L 148.5 236.854303 
" style="fill:none;stroke:#ee82ee;stroke-linecap:square;stroke-width:1.75;"/>
    <g clip-path="url(#p1a70cdd1c9)">
     <use style="fill:#ee82ee;stroke:#ee82ee;" x="80.5" xlink:href="#m71c23bf554" y="212.75076"/>
     <use style="fill:#ee82ee;stroke:#ee82ee;" x="114.5" xlink:href="#m71c23bf554" y="195.405148"/>
     <use style="fill:#ee82ee;stroke:#ee82ee;" x="148.5" xlink:href="#m71c23bf554" y="236.854303"/>
    </g>
   </g>
   <g id="line2d_45">
    <path clip-path="url(#p1a70cdd1c9)" d="M 182.5 191.986361 
L 216.5 171.843657 
L 250.5 219.767211 
" style="fill:none;stroke:#800080;stroke-dasharray:6.475,2.8;stroke-dashoffset:0;stroke-width:1.75;"/>
    <g clip-path="url(#p1a70cdd1c9)">
     <use style="fill:#800080;stroke:#800080;" x="182.5" xlink:href="#m6a3e21ef48" y="191.986361"/>
     <use style="fill:#800080;stroke:#800080;" x="216.5" xlink:href="#m6a3e21ef48" y="171.843657"/>
     <use style="fill:#800080;stroke:#800080;" x="250.5" xlink:href="#m6a3e21ef48" y="219.767211"/>
    </g>
   </g>
   <g id="line2d_46">
    <path clip-path="url(#p1a70cdd1c9)" d="M 97.5 214.976722 
L 131.5 206.170284 
L 165.5 236.854303 
" style="fill:none;stroke:#ee82ee;stroke-linecap:square;stroke-width:1.75;"/>
    <g clip-path="url(#p1a70cdd1c9)">
     <use style="fill-opacity:0;stroke:#ee82ee;" x="97.5" xlink:href="#m403ab83fd3" y="214.976722"/>
     <use style="fill-opacity:0;stroke:#ee82ee;" x="131.5" xlink:href="#m403ab83fd3" y="206.170284"/>
     <use style="fill-opacity:0;stroke:#ee82ee;" x="165.5" xlink:href="#m403ab83fd3" y="236.854303"/>
    </g>
   </g>
   <g id="line2d_47">
    <path clip-path="url(#p1a70cdd1c9)" d="M 199.5 191.986361 
L 233.5 171.843657 
L 267.5 219.767211 
" style="fill:none;stroke:#800080;stroke-dasharray:6.475,2.8;stroke-dashoffset:0;stroke-width:1.75;"/>
    <g clip-path="url(#p1a70cdd1c9)">
     <use style="fill-opacity:0;stroke:#800080;" x="199.5" xlink:href="#mb3aee840e8" y="191.986361"/>
     <use style="fill-opacity:0;stroke:#800080;" x="233.5" xlink:href="#mb3aee840e8" y="171.843657"/>
     <use style="fill-opacity:0;stroke:#800080;" x="267.5" xlink:href="#mb3aee840e8" y="219.767211"/>
    </g>
   </g>
   <g id="line2d_48">
    <path clip-path="url(#p1a70cdd1c9)" d="M 80.5 399.291429 
L 97.5 409.782857 
" style="fill:none;stroke:#ee82ee;stroke-linecap:square;stroke-width:1.75;"/>
   </g>
   <g id="line2d_49">
    <path clip-path="url(#p1a70cdd1c9)" d="M 80.5 399.291429 
L 97.5 409.782857 
" style="fill:none;stroke:#800080;stroke-dasharray:6.475,2.8;stroke-dashoffset:0;stroke-width:1.75;"/>
   </g>
   <g id="line2d_50">
    <defs>
     <path d="M 0 3 
C 0.795609 3 1.55874 2.683901 2.12132 2.12132 
C 2.683901 1.55874 3 0.795609 3 0 
C 3 -0.795609 2.683901 -1.55874 2.12132 -2.12132 
C 1.55874 -2.683901 0.795609 -3 0 -3 
C -0.795609 -3 -1.55874 -2.683901 -2.12132 -2.12132 
C -2.683901 -1.55874 -3 -0.795609 -3 0 
C -3 0.795609 -2.683901 1.55874 -2.12132 2.12132 
C -1.55874 2.683901 -0.795609 3 0 3 
z
" id="m8cd97fdbcb" style="stroke:#000000;"/>
    </defs>
    <g clip-path="url(#p1a70cdd1c9)">
     <use style="stroke:#000000;" x="80.5" xlink:href="#m8cd97fdbcb" y="399.291429"/>
     <use style="stroke:#000000;" x="97.5" xlink:href="#m8cd97fdbcb" y="409.782857"/>
    </g>
   </g>
   <g id="line2d_51">
    <defs>
     <path d="M 0 3 
C 0.795609 3 1.55874 2.683901 2.12132 2.12132 
C 2.683901 1.55874 3 0.795609 3 0 
C 3 -0.795609 2.683901 -1.55874 2.12132 -2.12132 
C 1.55874 -2.683901 0.795609 -3 0 -3 
C -0.795609 -3 -1.55874 -2.683901 -2.12132 -2.12132 
C -2.683901 -1.55874 -3 -0.795609 -3 0 
C -3 0.795609 -2.683901 1.55874 -2.12132 2.12132 
C -1.55874 2.683901 -0.795609 3 0 3 
z
" id="mad73d680a9" style="stroke:#000000;"/>
    </defs>
    <g clip-path="url(#p1a70cdd1c9)">
     <use style="fill-opacity:0;stroke:#000000;" x="80.5" xlink:href="#mad73d680a9" y="399.291429"/>
     <use style="fill-opacity:0;stroke:#000000;" x="97.5" xlink:href="#mad73d680a9" y="409.782857"/>
    </g>
   </g>
   <g id="line2d_52">
    <path clip-path="url(#p1a70cdd1c9)" d="M 80.5 399.291429 
L 97.5 409.782857 
" style="fill:none;stroke:#000000;stroke-dasharray:2.625,1.925;stroke-dashoffset:0;stroke-opacity:0.45;stroke-width:1.75;"/>
    <defs>
     <path d="M -3 3 
L 3 3 
L 3 -3 
L -3 -3 
z
" id="m10e64e5dd5" style="stroke:#000000;stroke-linejoin:miter;stroke-opacity:0.45;"/>
    </defs>
    <g clip-path="url(#p1a70cdd1c9)">
     <use style="fill-opacity:0.45;stroke:#000000;stroke-linejoin:miter;stroke-opacity:0.45;" x="80.5" xlink:href="#m10e64e5dd5" y="399.291429"/>
     <use style="fill-opacity:0.45;stroke:#000000;stroke-linejoin:miter;stroke-opacity:0.45;" x="97.5" xlink:href="#m10e64e5dd5" y="409.782857"/>
    </g>
   </g>
   <g id="line2d_53">
    <path clip-path="url(#p1a70cdd1c9)" d="M 80.5 399.291429 
L 97.5 409.782857 
" style="fill:none;stroke:#000000;stroke-linecap:square;stroke-width:1.75;"/>
    <g clip-path="url(#p1a70cdd1c9)">
     <use style="stroke:#000000;" x="80.5" xlink:href="#m8cd97fdbcb" y="399.291429"/>
     <use style="stroke:#000000;" x="97.5" xlink:href="#m8cd97fdbcb" y="409.782857"/>
    </g>
   </g>
   <g id="patch_5">
    <path d="M 72 388.8 
L 72 21.6 
" style="fill:none;stroke:#000000;stroke-linecap:square;stroke-linejoin:miter;stroke-width:1.8;"/>
   </g>
   <g id="patch_6">
    <path d="M 684 388.8 
L 684 21.6 
" style="fill:none;stroke:#000000;stroke-linecap:square;stroke-linejoin:miter;stroke-width:1.8;"/>
   </g>
   <g id="patch_7">
    <path d="M 72 388.8 
L 684 388.8 
" style="fill:none;stroke:#000000;stroke-linecap:square;stroke-linejoin:miter;stroke-width:1.8;"/>
   </g>
   <g id="patch_8">
    <path d="M 72 21.6 
L 684 21.6 
" style="fill:none;stroke:#000000;stroke-linecap:square;stroke-linejoin:miter;stroke-width:1.8;"/>
   </g>
   <g id="text_13">
    <!-- $-$ -->
    <g transform="translate(114.5 184.913719)scale(0.1728 -0.1728)">
     <use transform="translate(0 0.890625)" xlink:href="#DejaVuSans-Bold-8722"/>
    </g>
   </g>
   <g id="text_14">
    <!-- $+$ -->
    <g transform="translate(148.5 252.591446)scale(0.1728 -0.1728)">
     <defs>
      <path d="M 47.703125 62.703125 
L 47.703125 37.109375 
L 73.1875 37.109375 
L 73.1875 25.59375 
L 47.703125 25.59375 
L 47.703125 0 
L 36.078125 0 
L 36.078125 25.59375 
L 10.59375 25.59375 
L 10.59375 37.109375 
L 36.078125 37.109375 
L 36.078125 62.703125 
z
" id="DejaVuSans-Bold-43"/>
     </defs>
     <use transform="translate(0 0.296875)" xlink:href="#DejaVuSans-Bold-43"/>
    </g>
   </g>
   <g id="text_15">
    <!-- $-$ -->
    <g transform="translate(216.5 161.352229)scale(0.1728 -0.1728)">
     <use transform="translate(0 0.890625)" xlink:href="#DejaVuSans-Bold-8722"/>
    </g>
   </g>
   <g id="text_16">
    <!-- $+$ -->
    <g transform="translate(250.5 235.504354)scale(0.1728 -0.1728)">
     <use transform="translate(0 0.296875)" xlink:href="#DejaVuSans-Bold-43"/>
    </g>
   </g>
   <g id="text_17">
    <!-- $-$ -->
    <g transform="translate(318.5 210.571712)scale(0.1728 -0.1728)">
     <use transform="translate(0 0.890625)" xlink:href="#DejaVuSans-Bold-8722"/>
    </g>
   </g>
   <g id="text_18">
    <!-- $+$ -->
    <g transform="translate(352.5 270.66299)scale(0.1728 -0.1728)">
     <use transform="translate(0 0.296875)" xlink:href="#DejaVuSans-Bold-43"/>
    </g>
   </g>
   <g id="text_19">
    <!-- $-$ -->
    <g transform="translate(420.5 219.979135)scale(0.1728 -0.1728)">
     <use transform="translate(0 0.890625)" xlink:href="#DejaVuSans-Bold-8722"/>
    </g>
   </g>
   <g id="text_20">
    <!-- $+$ -->
    <g transform="translate(454.5 279.125252)scale(0.1728 -0.1728)">
     <use transform="translate(0 0.296875)" xlink:href="#DejaVuSans-Bold-43"/>
    </g>
   </g>
   <g id="text_21">
    <!-- $-$ -->
    <g transform="translate(522.5 227.892831)scale(0.1728 -0.1728)">
     <use transform="translate(0 0.890625)" xlink:href="#DejaVuSans-Bold-8722"/>
    </g>
   </g>
   <g id="text_22">
    <!-- $+$ -->
    <g transform="translate(556.5 283.93373)scale(0.1728 -0.1728)">
     <use transform="translate(0 0.296875)" xlink:href="#DejaVuSans-Bold-43"/>
    </g>
   </g>
   <g id="text_23">
    <!-- $-$ -->
    <g transform="translate(624.5 250.997315)scale(0.1728 -0.1728)">
     <use transform="translate(0 0.890625)" xlink:href="#DejaVuSans-Bold-8722"/>
    </g>
   </g>
   <g id="text_24">
    <!-- $+$ -->
    <g transform="translate(658.5 303.944022)scale(0.1728 -0.1728)">
     <use transform="translate(0 0.296875)" xlink:href="#DejaVuSans-Bold-43"/>
    </g>
   </g>
   <g id="text_25">
    <!-- $-$ -->
    <g transform="translate(114.5 57.324502)scale(0.0833 -0.0833)">
     <use transform="translate(0 0.890625)" xlink:href="#DejaVuSans-Bold-8722"/>
    </g>
   </g>
   <g id="text_26">
    <!-- $+$ -->
    <g transform="translate(148.5 148.234281)scale(0.0833 -0.0833)">
     <use transform="translate(0 0.296875)" xlink:href="#DejaVuSans-Bold-43"/>
    </g>
   </g>
   <g id="text_27">
    <!-- $-$ -->
    <g transform="translate(216.5 83.982065)scale(0.0833 -0.0833)">
     <use transform="translate(0 0.890625)" xlink:href="#DejaVuSans-Bold-8722"/>
    </g>
   </g>
   <g id="text_28">
    <!-- $+$ -->
    <g transform="translate(250.5 175.424072)scale(0.0833 -0.0833)">
     <use transform="translate(0 0.296875)" xlink:href="#DejaVuSans-Bold-43"/>
    </g>
   </g>
   <g id="text_29">
    <!-- $-$ -->
    <g transform="translate(318.5 138.698549)scale(0.0833 -0.0833)">
     <use transform="translate(0 0.890625)" xlink:href="#DejaVuSans-Bold-8722"/>
    </g>
   </g>
   <g id="text_30">
    <!-- $+$ -->
    <g transform="translate(352.5 210.905743)scale(0.0833 -0.0833)">
     <use transform="translate(0 0.296875)" xlink:href="#DejaVuSans-Bold-43"/>
    </g>
   </g>
   <g id="text_31">
    <!-- $-$ -->
    <g transform="translate(420.5 192.216705)scale(0.0833 -0.0833)">
     <use transform="translate(0 0.890625)" xlink:href="#DejaVuSans-Bold-8722"/>
    </g>
   </g>
   <g id="text_32">
    <!-- $+$ -->
    <g transform="translate(454.5 257.143185)scale(0.0833 -0.0833)">
     <use transform="translate(0 0.296875)" xlink:href="#DejaVuSans-Bold-43"/>
    </g>
   </g>
   <g id="text_33">
    <!-- $-$ -->
    <g transform="translate(522.5 164.546995)scale(0.0833 -0.0833)">
     <use transform="translate(0 0.890625)" xlink:href="#DejaVuSans-Bold-8722"/>
    </g>
   </g>
   <g id="text_34">
    <!-- $+$ -->
    <g transform="translate(556.5 234.361716)scale(0.0833 -0.0833)">
     <use transform="translate(0 0.296875)" xlink:href="#DejaVuSans-Bold-43"/>
    </g>
   </g>
   <g id="text_35">
    <!-- $-$ -->
    <g transform="translate(624.5 228.11301)scale(0.0833 -0.0833)">
     <use transform="translate(0 0.890625)" xlink:href="#DejaVuSans-Bold-8722"/>
    </g>
   </g>
   <g id="text_36">
    <!-- $+$ -->
    <g transform="translate(658.5 288.09802)scale(0.0833 -0.0833)">
     <use transform="translate(0 0.296875)" xlink:href="#DejaVuSans-Bold-43"/>
    </g>
   </g>
   <g id="legend_1">
    <g id="line2d_54">
     <path d="M 387.879375 37.318125 
L 411.879375 37.318125 
" style="fill:none;stroke:#ee82ee;stroke-linecap:square;stroke-width:1.75;"/>
    </g>
    <g id="line2d_55"/>
    <g id="text_37">
     <!-- 2018 -->
     <g transform="translate(421.479375 41.518125)scale(0.12 -0.12)">
      <defs>
       <path d="M 31.78125 34.625 
Q 24.75 34.625 20.71875 30.859375 
Q 16.703125 27.09375 16.703125 20.515625 
Q 16.703125 13.921875 20.71875 10.15625 
Q 24.75 6.390625 31.78125 6.390625 
Q 38.8125 6.390625 42.859375 10.171875 
Q 46.921875 13.96875 46.921875 20.515625 
Q 46.921875 27.09375 42.890625 30.859375 
Q 38.875 34.625 31.78125 34.625 
z
M 21.921875 38.8125 
Q 15.578125 40.375 12.03125 44.71875 
Q 8.5 49.078125 8.5 55.328125 
Q 8.5 64.0625 14.71875 69.140625 
Q 20.953125 74.21875 31.78125 74.21875 
Q 42.671875 74.21875 48.875 69.140625 
Q 55.078125 64.0625 55.078125 55.328125 
Q 55.078125 49.078125 51.53125 44.71875 
Q 48 40.375 41.703125 38.8125 
Q 48.828125 37.15625 52.796875 32.3125 
Q 56.78125 27.484375 56.78125 20.515625 
Q 56.78125 9.90625 50.3125 4.234375 
Q 43.84375 -1.421875 31.78125 -1.421875 
Q 19.734375 -1.421875 13.25 4.234375 
Q 6.78125 9.90625 6.78125 20.515625 
Q 6.78125 27.484375 10.78125 32.3125 
Q 14.796875 37.15625 21.921875 38.8125 
z
M 18.3125 54.390625 
Q 18.3125 48.734375 21.84375 45.5625 
Q 25.390625 42.390625 31.78125 42.390625 
Q 38.140625 42.390625 41.71875 45.5625 
Q 45.3125 48.734375 45.3125 54.390625 
Q 45.3125 60.0625 41.71875 63.234375 
Q 38.140625 66.40625 31.78125 66.40625 
Q 25.390625 66.40625 21.84375 63.234375 
Q 18.3125 60.0625 18.3125 54.390625 
z
" id="DejaVuSans-56"/>
      </defs>
      <use xlink:href="#DejaVuSans-50"/>
      <use x="63.623047" xlink:href="#DejaVuSans-48"/>
      <use x="127.246094" xlink:href="#DejaVuSans-49"/>
      <use x="190.869141" xlink:href="#DejaVuSans-56"/>
     </g>
    </g>
    <g id="line2d_56">
     <path d="M 387.879375 54.931875 
L 411.879375 54.931875 
" style="fill:none;stroke:#800080;stroke-dasharray:6.475,2.8;stroke-dashoffset:0;stroke-width:1.75;"/>
    </g>
    <g id="line2d_57"/>
    <g id="text_38">
     <!-- 2019 -->
     <g transform="translate(421.479375 59.131875)scale(0.12 -0.12)">
      <defs>
       <path d="M 10.984375 1.515625 
L 10.984375 10.5 
Q 14.703125 8.734375 18.5 7.8125 
Q 22.3125 6.890625 25.984375 6.890625 
Q 35.75 6.890625 40.890625 13.453125 
Q 46.046875 20.015625 46.78125 33.40625 
Q 43.953125 29.203125 39.59375 26.953125 
Q 35.25 24.703125 29.984375 24.703125 
Q 19.046875 24.703125 12.671875 31.3125 
Q 6.296875 37.9375 6.296875 49.421875 
Q 6.296875 60.640625 12.9375 67.421875 
Q 19.578125 74.21875 30.609375 74.21875 
Q 43.265625 74.21875 49.921875 64.515625 
Q 56.59375 54.828125 56.59375 36.375 
Q 56.59375 19.140625 48.40625 8.859375 
Q 40.234375 -1.421875 26.421875 -1.421875 
Q 22.703125 -1.421875 18.890625 -0.6875 
Q 15.09375 0.046875 10.984375 1.515625 
z
M 30.609375 32.421875 
Q 37.25 32.421875 41.125 36.953125 
Q 45.015625 41.5 45.015625 49.421875 
Q 45.015625 57.28125 41.125 61.84375 
Q 37.25 66.40625 30.609375 66.40625 
Q 23.96875 66.40625 20.09375 61.84375 
Q 16.21875 57.28125 16.21875 49.421875 
Q 16.21875 41.5 20.09375 36.953125 
Q 23.96875 32.421875 30.609375 32.421875 
z
" id="DejaVuSans-57"/>
      </defs>
      <use xlink:href="#DejaVuSans-50"/>
      <use x="63.623047" xlink:href="#DejaVuSans-48"/>
      <use x="127.246094" xlink:href="#DejaVuSans-49"/>
      <use x="190.869141" xlink:href="#DejaVuSans-57"/>
     </g>
    </g>
    <g id="line2d_58"/>
    <g id="line2d_59">
     <g>
      <use style="stroke:#000000;" x="488.019375" xlink:href="#m8cd97fdbcb" y="37.318125"/>
     </g>
    </g>
    <g id="text_39">
     <!-- SWP=off -->
     <g transform="translate(509.619375 41.518125)scale(0.12 -0.12)">
      <defs>
       <path d="M 53.515625 70.515625 
L 53.515625 60.890625 
Q 47.90625 63.578125 42.921875 64.890625 
Q 37.9375 66.21875 33.296875 66.21875 
Q 25.25 66.21875 20.875 63.09375 
Q 16.5 59.96875 16.5 54.203125 
Q 16.5 49.359375 19.40625 46.890625 
Q 22.3125 44.4375 30.421875 42.921875 
L 36.375 41.703125 
Q 47.40625 39.59375 52.65625 34.296875 
Q 57.90625 29 57.90625 20.125 
Q 57.90625 9.515625 50.796875 4.046875 
Q 43.703125 -1.421875 29.984375 -1.421875 
Q 24.8125 -1.421875 18.96875 -0.25 
Q 13.140625 0.921875 6.890625 3.21875 
L 6.890625 13.375 
Q 12.890625 10.015625 18.65625 8.296875 
Q 24.421875 6.59375 29.984375 6.59375 
Q 38.421875 6.59375 43.015625 9.90625 
Q 47.609375 13.234375 47.609375 19.390625 
Q 47.609375 24.75 44.3125 27.78125 
Q 41.015625 30.8125 33.5 32.328125 
L 27.484375 33.5 
Q 16.453125 35.6875 11.515625 40.375 
Q 6.59375 45.0625 6.59375 53.421875 
Q 6.59375 63.09375 13.40625 68.65625 
Q 20.21875 74.21875 32.171875 74.21875 
Q 37.3125 74.21875 42.625 73.28125 
Q 47.953125 72.359375 53.515625 70.515625 
z
" id="DejaVuSans-83"/>
       <path d="M 3.328125 72.90625 
L 13.28125 72.90625 
L 28.609375 11.28125 
L 43.890625 72.90625 
L 54.984375 72.90625 
L 70.3125 11.28125 
L 85.59375 72.90625 
L 95.609375 72.90625 
L 77.296875 0 
L 64.890625 0 
L 49.515625 63.28125 
L 33.984375 0 
L 21.578125 0 
z
" id="DejaVuSans-87"/>
       <path d="M 19.671875 64.796875 
L 19.671875 37.40625 
L 32.078125 37.40625 
Q 38.96875 37.40625 42.71875 40.96875 
Q 46.484375 44.53125 46.484375 51.125 
Q 46.484375 57.671875 42.71875 61.234375 
Q 38.96875 64.796875 32.078125 64.796875 
z
M 9.8125 72.90625 
L 32.078125 72.90625 
Q 44.34375 72.90625 50.609375 67.359375 
Q 56.890625 61.8125 56.890625 51.125 
Q 56.890625 40.328125 50.609375 34.8125 
Q 44.34375 29.296875 32.078125 29.296875 
L 19.671875 29.296875 
L 19.671875 0 
L 9.8125 0 
z
" id="DejaVuSans-80"/>
       <path d="M 10.59375 45.40625 
L 73.1875 45.40625 
L 73.1875 37.203125 
L 10.59375 37.203125 
z
M 10.59375 25.484375 
L 73.1875 25.484375 
L 73.1875 17.1875 
L 10.59375 17.1875 
z
" id="DejaVuSans-61"/>
       <path d="M 37.109375 75.984375 
L 37.109375 68.5 
L 28.515625 68.5 
Q 23.6875 68.5 21.796875 66.546875 
Q 19.921875 64.59375 19.921875 59.515625 
L 19.921875 54.6875 
L 34.71875 54.6875 
L 34.71875 47.703125 
L 19.921875 47.703125 
L 19.921875 0 
L 10.890625 0 
L 10.890625 47.703125 
L 2.296875 47.703125 
L 2.296875 54.6875 
L 10.890625 54.6875 
L 10.890625 58.5 
Q 10.890625 67.625 15.140625 71.796875 
Q 19.390625 75.984375 28.609375 75.984375 
z
" id="DejaVuSans-102"/>
      </defs>
      <use xlink:href="#DejaVuSans-83"/>
      <use x="63.476562" xlink:href="#DejaVuSans-87"/>
      <use x="162.353516" xlink:href="#DejaVuSans-80"/>
      <use x="222.65625" xlink:href="#DejaVuSans-61"/>
      <use x="306.445312" xlink:href="#DejaVuSans-111"/>
      <use x="367.626953" xlink:href="#DejaVuSans-102"/>
      <use x="402.832031" xlink:href="#DejaVuSans-102"/>
     </g>
    </g>
    <g id="line2d_60"/>
    <g id="line2d_61">
     <g>
      <use style="fill-opacity:0;stroke:#000000;" x="488.019375" xlink:href="#mad73d680a9" y="54.931875"/>
     </g>
    </g>
    <g id="text_40">
     <!-- SWP=on -->
     <g transform="translate(509.619375 59.131875)scale(0.12 -0.12)">
      <defs>
       <path d="M 54.890625 33.015625 
L 54.890625 0 
L 45.90625 0 
L 45.90625 32.71875 
Q 45.90625 40.484375 42.875 44.328125 
Q 39.84375 48.1875 33.796875 48.1875 
Q 26.515625 48.1875 22.3125 43.546875 
Q 18.109375 38.921875 18.109375 30.90625 
L 18.109375 0 
L 9.078125 0 
L 9.078125 54.6875 
L 18.109375 54.6875 
L 18.109375 46.1875 
Q 21.34375 51.125 25.703125 53.5625 
Q 30.078125 56 35.796875 56 
Q 45.21875 56 50.046875 50.171875 
Q 54.890625 44.34375 54.890625 33.015625 
z
" id="DejaVuSans-110"/>
      </defs>
      <use xlink:href="#DejaVuSans-83"/>
      <use x="63.476562" xlink:href="#DejaVuSans-87"/>
      <use x="162.353516" xlink:href="#DejaVuSans-80"/>
      <use x="222.65625" xlink:href="#DejaVuSans-61"/>
      <use x="306.445312" xlink:href="#DejaVuSans-111"/>
      <use x="367.626953" xlink:href="#DejaVuSans-110"/>
     </g>
    </g>
    <g id="line2d_62">
     <path d="M 586.185 37.318125 
L 610.185 37.318125 
" style="fill:none;stroke:#000000;stroke-dasharray:2.625,1.925;stroke-dashoffset:0;stroke-opacity:0.45;stroke-width:1.75;"/>
    </g>
    <g id="line2d_63">
     <g>
      <use style="fill-opacity:0.45;stroke:#000000;stroke-linejoin:miter;stroke-opacity:0.45;" x="598.185" xlink:href="#m10e64e5dd5" y="37.318125"/>
     </g>
    </g>
    <g id="text_41">
     <!-- GS MM -->
     <g transform="translate(619.785 41.518125)scale(0.12 -0.12)">
      <defs>
       <path d="M 59.515625 10.40625 
L 59.515625 29.984375 
L 43.40625 29.984375 
L 43.40625 38.09375 
L 69.28125 38.09375 
L 69.28125 6.78125 
Q 63.578125 2.734375 56.6875 0.65625 
Q 49.8125 -1.421875 42 -1.421875 
Q 24.90625 -1.421875 15.25 8.5625 
Q 5.609375 18.5625 5.609375 36.375 
Q 5.609375 54.25 15.25 64.234375 
Q 24.90625 74.21875 42 74.21875 
Q 49.125 74.21875 55.546875 72.453125 
Q 61.96875 70.703125 67.390625 67.28125 
L 67.390625 56.78125 
Q 61.921875 61.421875 55.765625 63.765625 
Q 49.609375 66.109375 42.828125 66.109375 
Q 29.4375 66.109375 22.71875 58.640625 
Q 16.015625 51.171875 16.015625 36.375 
Q 16.015625 21.625 22.71875 14.15625 
Q 29.4375 6.6875 42.828125 6.6875 
Q 48.046875 6.6875 52.140625 7.59375 
Q 56.25 8.5 59.515625 10.40625 
z
" id="DejaVuSans-71"/>
       <path id="DejaVuSans-32"/>
      </defs>
      <use xlink:href="#DejaVuSans-71"/>
      <use x="77.490234" xlink:href="#DejaVuSans-83"/>
      <use x="140.966797" xlink:href="#DejaVuSans-32"/>
      <use x="172.753906" xlink:href="#DejaVuSans-77"/>
      <use x="259.033203" xlink:href="#DejaVuSans-77"/>
     </g>
    </g>
    <g id="line2d_64">
     <path d="M 586.185 54.931875 
L 610.185 54.931875 
" style="fill:none;stroke:#000000;stroke-linecap:square;stroke-width:1.75;"/>
    </g>
    <g id="line2d_65">
     <g>
      <use style="stroke:#000000;" x="598.185" xlink:href="#m8cd97fdbcb" y="54.931875"/>
     </g>
    </g>
    <g id="text_42">
     <!-- GS besp. -->
     <g transform="translate(619.785 59.131875)scale(0.12 -0.12)">
      <defs>
       <path d="M 48.6875 27.296875 
Q 48.6875 37.203125 44.609375 42.84375 
Q 40.53125 48.484375 33.40625 48.484375 
Q 26.265625 48.484375 22.1875 42.84375 
Q 18.109375 37.203125 18.109375 27.296875 
Q 18.109375 17.390625 22.1875 11.75 
Q 26.265625 6.109375 33.40625 6.109375 
Q 40.53125 6.109375 44.609375 11.75 
Q 48.6875 17.390625 48.6875 27.296875 
z
M 18.109375 46.390625 
Q 20.953125 51.265625 25.265625 53.625 
Q 29.59375 56 35.59375 56 
Q 45.5625 56 51.78125 48.09375 
Q 58.015625 40.1875 58.015625 27.296875 
Q 58.015625 14.40625 51.78125 6.484375 
Q 45.5625 -1.421875 35.59375 -1.421875 
Q 29.59375 -1.421875 25.265625 0.953125 
Q 20.953125 3.328125 18.109375 8.203125 
L 18.109375 0 
L 9.078125 0 
L 9.078125 75.984375 
L 18.109375 75.984375 
z
" id="DejaVuSans-98"/>
       <path d="M 44.28125 53.078125 
L 44.28125 44.578125 
Q 40.484375 46.53125 36.375 47.5 
Q 32.28125 48.484375 27.875 48.484375 
Q 21.1875 48.484375 17.84375 46.4375 
Q 14.5 44.390625 14.5 40.28125 
Q 14.5 37.15625 16.890625 35.375 
Q 19.28125 33.59375 26.515625 31.984375 
L 29.59375 31.296875 
Q 39.15625 29.25 43.1875 25.515625 
Q 47.21875 21.78125 47.21875 15.09375 
Q 47.21875 7.46875 41.1875 3.015625 
Q 35.15625 -1.421875 24.609375 -1.421875 
Q 20.21875 -1.421875 15.453125 -0.5625 
Q 10.6875 0.296875 5.421875 2 
L 5.421875 11.28125 
Q 10.40625 8.6875 15.234375 7.390625 
Q 20.0625 6.109375 24.8125 6.109375 
Q 31.15625 6.109375 34.5625 8.28125 
Q 37.984375 10.453125 37.984375 14.40625 
Q 37.984375 18.0625 35.515625 20.015625 
Q 33.0625 21.96875 24.703125 23.78125 
L 21.578125 24.515625 
Q 13.234375 26.265625 9.515625 29.90625 
Q 5.8125 33.546875 5.8125 39.890625 
Q 5.8125 47.609375 11.28125 51.796875 
Q 16.75 56 26.8125 56 
Q 31.78125 56 36.171875 55.265625 
Q 40.578125 54.546875 44.28125 53.078125 
z
" id="DejaVuSans-115"/>
       <path d="M 18.109375 8.203125 
L 18.109375 -20.796875 
L 9.078125 -20.796875 
L 9.078125 54.6875 
L 18.109375 54.6875 
L 18.109375 46.390625 
Q 20.953125 51.265625 25.265625 53.625 
Q 29.59375 56 35.59375 56 
Q 45.5625 56 51.78125 48.09375 
Q 58.015625 40.1875 58.015625 27.296875 
Q 58.015625 14.40625 51.78125 6.484375 
Q 45.5625 -1.421875 35.59375 -1.421875 
Q 29.59375 -1.421875 25.265625 0.953125 
Q 20.953125 3.328125 18.109375 8.203125 
z
M 48.6875 27.296875 
Q 48.6875 37.203125 44.609375 42.84375 
Q 40.53125 48.484375 33.40625 48.484375 
Q 26.265625 48.484375 22.1875 42.84375 
Q 18.109375 37.203125 18.109375 27.296875 
Q 18.109375 17.390625 22.1875 11.75 
Q 26.265625 6.109375 33.40625 6.109375 
Q 40.53125 6.109375 44.609375 11.75 
Q 48.6875 17.390625 48.6875 27.296875 
z
" id="DejaVuSans-112"/>
       <path d="M 10.6875 12.40625 
L 21 12.40625 
L 21 0 
L 10.6875 0 
z
" id="DejaVuSans-46"/>
      </defs>
      <use xlink:href="#DejaVuSans-71"/>
      <use x="77.490234" xlink:href="#DejaVuSans-83"/>
      <use x="140.966797" xlink:href="#DejaVuSans-32"/>
      <use x="172.753906" xlink:href="#DejaVuSans-98"/>
      <use x="236.230469" xlink:href="#DejaVuSans-101"/>
      <use x="297.753906" xlink:href="#DejaVuSans-115"/>
      <use x="349.853516" xlink:href="#DejaVuSans-112"/>
      <use x="413.330078" xlink:href="#DejaVuSans-46"/>
     </g>
    </g>
   </g>
  </g>
 </g>
 <defs>
  <clipPath id="p1a70cdd1c9">
   <rect height="367.2" width="612" x="72" y="21.6"/>
  </clipPath>
 </defs>
</svg>
